<?xml version="1.0" encoding="UTF-8" standalone="no"?>
<svg width="100px" height="100px" viewBox="0 0 100 100" version="1.1" xmlns="http://www.w3.org/2000/svg" xmlns:xlink="http://www.w3.org/1999/xlink" xmlns:sketch="http://www.bohemiancoding.com/sketch/ns">
    <!-- Generator: Sketch 3.0.3 (7892) - http://www.bohemiancoding.com/sketch -->
    <title>icon_googleplus_blk</title>
    <desc>Created with Sketch.</desc>
    <defs>
        <rect id="path-1" x="0" y="0" width="100" height="100"></rect>
        <rect id="path-3" x="0" y="0" width="100" height="100"></rect>
        <rect id="path-5" x="0" y="0" width="100" height="100"></rect>
    </defs>
    <g id="Page-1" stroke="none" stroke-width="1" fill="none" fill-rule="evenodd" sketch:type="MSPage">
        <g id="icon_googleplus_blk" sketch:type="MSLayerGroup">
            <g id="Group">
                <g id="Clipped">
                    <mask id="mask-2" sketch:name="SVGID_1_" fill="white">
                        <use xlink:href="#path-1"></use>
                    </mask>
                    <g id="SVGID_1_"></g>
                    <path d="M40.2,27 C36.1,27 33.6,30.8 34.3,36.1 C34.9,41.4 38.7,44.9 42.7,45.2 C46.8,45.2 48.9,42.1 48.3,36.8 C47.4,31.4 43.9,27.3 40.2,27" id="Shape" fill="#000000" sketch:type="MSShapeGroup" mask="url(#mask-2)"></path>
                </g>
                <g id="Clipped">
                    <mask id="mask-4" sketch:name="SVGID_3_" fill="white">
                        <use xlink:href="#path-3"></use>
                    </mask>
                    <g id="SVGID_3_"></g>
                    <path d="M41.7,55.7 C35.8,55.7 30.8,59.5 30.8,63.8 C30.8,68.2 35.2,71.9 41.1,71.9 C49.5,71.9 52.3,68.5 52.3,63.8 C52.3,63.2 52.3,62.9 52,62.2 C51.4,59.7 48.9,58.1 45.4,56 C44.2,56.1 43,55.7 41.7,55.7" id="Shape" fill="#000000" sketch:type="MSShapeGroup" mask="url(#mask-4)"></path>
                </g>
                <g id="Clipped">
                    <mask id="mask-6" sketch:name="SVGID_5_" fill="white">
                        <use xlink:href="#path-5"></use>
                    </mask>
                    <g id="SVGID_5_"></g>
                    <path d="M75.2,35.4 L68.3,35.4 L68.3,42.3 L64.9,42.3 L64.9,35.4 L58,35.4 L58,32 L64.9,32 L64.9,25.1 L68.3,25.1 L68.3,32 L75.2,32 L75.2,35.4 L75.2,35.4 Z M53.9,36.4 C53.9,39.5 52,42.3 49.5,44.2 C47,46.1 46.7,47 46.7,48.6 C46.7,50.2 49.8,52 51.1,53.3 C55.8,56.7 56.7,59.2 56.7,63.6 C56.7,69.2 50.8,74.9 41.1,74.9 C32.7,74.9 25.2,71.5 25.2,65.8 C25.2,60.2 31.1,54.2 39.9,54.2 L42.7,54.2 C41.5,53 40.5,52 40.5,50.4 C40.5,49.5 40.8,48.5 41.1,47.6 L39.5,47.6 C32.3,47.6 28.2,42.6 28.2,36.3 C28.2,30.4 34.4,24.7 42,24.7 L56.7,24.7 L53.3,28.1 L49.5,28.1 C52.7,29.8 53.9,32.9 53.9,36.4 L53.9,36.4 Z M50.2,-0.2 C22.7,-0.2 0.2,22.3 0.2,49.8 C0.2,77.3 22.7,99.8 50.2,99.8 C77.7,99.8 100.2,77.3 100.2,49.8 C100.2,22 77.7,-0.2 50.2,-0.2 L50.2,-0.2 Z" id="Shape" fill="#000000" sketch:type="MSShapeGroup" mask="url(#mask-6)"></path>
                </g>
            </g>
        </g>
    </g>
</svg>