<?xml version="1.0" encoding="UTF-8" standalone="no"?>
<svg width="100px" height="100px" viewBox="0 0 100 100" version="1.1" xmlns="http://www.w3.org/2000/svg" xmlns:xlink="http://www.w3.org/1999/xlink" xmlns:sketch="http://www.bohemiancoding.com/sketch/ns">
    <!-- Generator: Sketch 3.0.3 (7892) - http://www.bohemiancoding.com/sketch -->
    <title>icon_twit_blk</title>
    <desc>Created with Sketch.</desc>
    <defs>
        <rect id="path-1" x="0" y="0" width="100" height="100"></rect>
    </defs>
    <g id="Page-1" stroke="none" stroke-width="1" fill="none" fill-rule="evenodd" sketch:type="MSPage">
        <g id="icon_twit_blk" sketch:type="MSLayerGroup">
            <g id="Clipped">
                <mask id="mask-2" sketch:name="SVGID_1_" fill="white">
                    <use xlink:href="#path-1"></use>
                </mask>
                <g id="SVGID_1_"></g>
                <path d="M70.2,39.5 L70.2,40.7 C70.2,54.1 59.9,69.8 41.1,69.8 C35.2,69.8 29.8,68.2 25.5,65.1 L28,65.1 C32.7,65.1 37.4,63.5 40.8,60.7 C36.4,60.7 32.7,57.6 31.1,53.5 C31.7,53.5 32.3,53.8 33,53.8 C33.9,53.8 34.9,53.8 35.8,53.5 C31.1,52.6 27.7,48.5 27.7,43.5 L27.7,43.5 C28.9,44.1 30.5,44.7 32.4,44.7 C29.6,42.8 27.7,39.7 27.7,36.3 C27.7,34.4 28.3,32.6 28.9,31.3 C33.9,37.5 41.4,41.6 50.1,41.9 C49.8,41.3 49.8,40.3 49.8,39.7 C49.8,34.1 54.5,29.4 60.1,29.4 C62.9,29.4 65.7,30.6 67.6,32.5 C69.8,32.2 72,31.3 74.2,30 C73.6,32.5 71.7,34.4 69.8,35.6 C72,35.3 73.9,34.7 75.7,34 C73.9,36.4 72,37.9 70.2,39.5 M50.2,-0.2 C22.7,-0.2 0.2,22.3 0.2,49.8 C0.2,77.3 22.7,99.8 50.2,99.8 C77.7,99.8 100.2,77.3 100.2,49.8 C100.2,22 77.7,-0.2 50.2,-0.2" id="Shape" fill="#000000" sketch:type="MSShapeGroup" mask="url(#mask-2)"></path>
            </g>
        </g>
    </g>
</svg>