<?xml version="1.0" encoding="UTF-8" standalone="no"?>
<svg width="100px" height="100px" viewBox="0 0 100 100" version="1.1" xmlns="http://www.w3.org/2000/svg" xmlns:xlink="http://www.w3.org/1999/xlink" xmlns:sketch="http://www.bohemiancoding.com/sketch/ns">
    <!-- Generator: Sketch 3.0.3 (7892) - http://www.bohemiancoding.com/sketch -->
    <title>icon_mail_wht</title>
    <desc>Created with Sketch.</desc>
    <defs>
        <rect id="path-1" x="0" y="0" width="100" height="100"></rect>
    </defs>
    <g id="Page-1" stroke="none" stroke-width="1" fill="none" fill-rule="evenodd" sketch:type="MSPage">
        <g id="icon_mail_wht" sketch:type="MSLayerGroup">
            <g id="Group">
                <g id="Clipped">
                    <mask id="mask-2" sketch:name="SVGID_1_" fill="white">
                        <use xlink:href="#path-1"></use>
                    </mask>
                    <g id="SVGID_1_"></g>
                    <path d="M75.6,61.9 C75.6,64.6 73.8,67.1 71.7,67.1 L29,67.1 C26.9,67.1 25.1,65 25.1,61.9 L25.1,38.6 C25.1,35.9 26.9,33.4 29,33.4 L71.7,33.4 C73.8,33.4 75.6,35.5 75.6,38.6 L75.6,61.9 L75.6,61.9 Z M98.6,50.4 C98.6,77.1 76.8,98.9 50.1,98.9 C23.4,98.9 1.6,77.1 1.6,50.4 C1.6,23.7 23.4,1.9 50.1,1.9 C76.8,1.9 98.6,23.4 98.6,50.4 L98.6,50.4 Z" id="Shape" stroke="#000000" stroke-width="3" sketch:type="MSShapeGroup" mask="url(#mask-2)"></path>
                </g>
                <path d="M26.5,34.7 L50.1,58 L73.8,34.7" id="Shape" stroke="#000000" stroke-width="3" sketch:type="MSShapeGroup"></path>
            </g>
        </g>
    </g>
</svg>