<?xml version="1.0" encoding="UTF-8" standalone="no"?>
<svg width="150px" height="150px" viewBox="0 0 150 150" version="1.1" xmlns="http://www.w3.org/2000/svg" xmlns:xlink="http://www.w3.org/1999/xlink" xmlns:sketch="http://www.bohemiancoding.com/sketch/ns">
    <!-- Generator: Sketch 3.0.3 (7892) - http://www.bohemiancoding.com/sketch -->
    <title>icona_brands</title>
    <desc>Created with Sketch.</desc>
    <defs></defs>
    <g id="Page-1" stroke="none" stroke-width="1" fill="none" fill-rule="evenodd" sketch:type="MSPage">
        <g id="icona_brands" sketch:type="MSLayerGroup">
            <rect id="Rectangle-path" fill="#000000" sketch:type="MSShapeGroup" x="0" y="0" width="150" height="150"></rect>
            <path d="M131.6,95.8 L79.5,63.1 L79.5,60.7 C79.5,59.3 80.2,58.1 81.8,57 C82,56.9 82.2,56.7 82.5,56.6 C85,55 90.3,51.8 90.3,44.5 C90.3,36.9 84.1,31.1 78,29.9 C71.7,28.6 65.9,30.1 62.2,34.2 C58.8,37.9 57.8,41 57.6,46.1 L57.6,48 C57.6,49.1 59.7,49.9 62.3,49.9 L63.2,49.9 C65.8,49.9 67.9,49 67.9,48 L67.9,46.1 C68,42.6 69,40.6 72.5,39.8 C74.7,39.4 77.1,40 78.5,41.3 C79.1,41.9 79.5,43 79.4,44.1 C79.3,44.8 79,46.2 77.6,47.2 L73.1,50.2 C70.3,52 69,54.2 69,57.5 L69,63 L17.6,95.7 C10,100.4 11.5,108.5 12.2,110.8 C12.8,112.9 15.6,119.9 25.7,119.9 L124.1,119.9 C131.3,119.9 135.8,115.2 137.1,110.6 C138.5,105.8 137,99 131.6,95.8 L131.6,95.8 Z M126.3,107.1 C126.1,108 125.3,108.9 124,108.9 L124,108.9 L25.6,108.9 C24.2,108.9 23.5,108 23.2,107.2 C22.9,106.2 23.3,105.2 24.2,104.6 L74.6,73 L125.3,104.7 C126.6,105.5 126.5,106.7 126.3,107.1 L126.3,107.1 Z" id="Shape" fill="#FFFFFF" sketch:type="MSShapeGroup"></path>
        </g>
    </g>
</svg>