<?xml version="1.0" encoding="UTF-8" standalone="no"?>
<svg width="150px" height="150px" viewBox="0 0 150 150" version="1.1" xmlns="http://www.w3.org/2000/svg" xmlns:xlink="http://www.w3.org/1999/xlink" xmlns:sketch="http://www.bohemiancoding.com/sketch/ns">
    <!-- Generator: Sketch 3.0.3 (7892) - http://www.bohemiancoding.com/sketch -->
    <title>icona_events</title>
    <desc>Created with Sketch.</desc>
    <defs></defs>
    <g id="Page-1" stroke="none" stroke-width="1" fill="none" fill-rule="evenodd" sketch:type="MSPage">
        <g id="icona_events" sketch:type="MSLayerGroup">
            <rect id="Rectangle-path" fill="#000000" sketch:type="MSShapeGroup" x="0" y="0" width="150" height="150"></rect>
            <g id="Group" transform="translate(16.000000, 17.000000)" fill="#FFFFFF" sketch:type="MSShapeGroup">
                <path d="M51.2,-0.4 C23.2,-0.4 0.4,22.3 0.4,50.4 C0.4,78.5 23.1,101.2 51.2,101.2 L52.5,101.2 L48.9,97.1 C48.8,96.9 45.8,92 52.3,86.6 C56.9,82.8 63.5,86.2 67.1,88.6 L67.1,64.3 C63.2,68.7 57.6,71.5 51.3,71.5 C39.5,71.5 30.1,62 30.1,50.4 C30.1,38.8 39.5,29.3 51.2,29.3 C62.1,29.3 71.1,37.6 72.2,48.3 C73,48 73.9,47.8 74.8,47.8 C76.6,47.8 78.2,48.4 79.5,49.4 L79.5,46.6 C79.5,42.3 83,38.9 87.2,38.9 C91.2,38.9 94.5,42 94.9,45.9 C96.2,44.9 97.9,44.2 99.7,44.2 C100.4,44.2 101,44.3 101.7,44.5 C98.7,19.3 77.2,-0.4 51.2,-0.4 L51.2,-0.4 Z M51.2,22.4 C35.8,22.4 23.2,35 23.2,50.4 C23.2,51.5 22.3,52.4 21.2,52.4 C20.1,52.4 19.2,51.5 19.2,50.4 C19.2,32.7 33.6,18.4 51.2,18.4 C52.3,18.4 53.2,19.3 53.2,20.4 C53.2,21.5 52.3,22.4 51.2,22.4 L51.2,22.4 Z M51.2,10.9 C29.4,10.9 11.6,28.6 11.6,50.4 C11.6,51.5 10.7,52.4 9.6,52.4 C8.5,52.4 7.6,51.5 7.6,50.4 C7.6,26.4 27.1,6.8 51.2,6.8 C52.3,6.8 53.2,7.7 53.2,8.8 C53.2,10 52.3,10.9 51.2,10.9 L51.2,10.9 Z" id="Shape"></path>
                <path d="M44.2,50.4 C44.2,54.3 47.3,57.4 51.2,57.4 C55.1,57.4 58.2,54.3 58.2,50.4 C58.2,46.5 55.1,43.4 51.2,43.4 C47.3,43.4 44.2,46.5 44.2,50.4 L44.2,50.4 Z" id="Shape"></path>
                <path d="M104.3,62.6 L104.3,51.9 C104.3,50.1 103.3,48.6 101.8,47.8 C101.1,47.4 100.4,47.2 99.6,47.2 C97,47.2 94.9,49.3 94.9,51.9 L94.9,75.4 L93.4,75.4 L91.9,75.4 L91.9,52 L91.9,46.6 C91.9,44 89.8,41.9 87.2,41.9 C84.6,41.9 82.5,44 82.5,46.6 L82.5,55.5 L82.5,75.4 L79.5,75.4 L79.5,55.6 C79.5,53 77.4,50.9 74.8,50.9 C73.9,50.9 73,51.2 72.3,51.7 C71,52.5 70.1,54 70.1,55.7 L70.1,60 L70.1,95 L67.6,92.9 C67.5,92.8 58.6,85.4 54.2,89.1 C50.1,92.5 51.1,95.1 51.4,95.6 L56.3,101.2 L69.2,115.6 L116.8,115.6 L116.8,62.6 C116.8,60 114.7,57.9 112.1,57.9 C109.5,57.9 107.4,60 107.4,62.6 L107.4,75.4 L104.4,75.4 L104.4,62.6 L104.3,62.6 L104.3,62.6 Z" id="Shape"></path>
            </g>
        </g>
    </g>
</svg>