<?xml version="1.0" encoding="UTF-8" standalone="no"?>
<svg width="150px" height="150px" viewBox="0 0 150 150" version="1.1" xmlns="http://www.w3.org/2000/svg" xmlns:xlink="http://www.w3.org/1999/xlink" xmlns:sketch="http://www.bohemiancoding.com/sketch/ns">
    <!-- Generator: Sketch 3.0.3 (7892) - http://www.bohemiancoding.com/sketch -->
    <title>icona_aboutus</title>
    <desc>Created with Sketch.</desc>
    <defs></defs>
    <g id="Page-1" stroke="none" stroke-width="1" fill="none" fill-rule="evenodd" sketch:type="MSPage">
        <g id="icona_aboutus" sketch:type="MSLayerGroup">
            <g id="Group" sketch:type="MSShapeGroup">
                <rect id="Rectangle-path" fill="#000000" x="0" y="0" width="150" height="150"></rect>
                <path d="M63.1,27.4 C63.1,20.1 68.3,16.3 74.6,16.3 C80.9,16.3 86.1,20.1 86.1,27.4 C86.1,34.7 80.9,42.6 74.6,42.6 C68.2,42.5 63.1,34.6 63.1,27.4 L63.1,27.4 Z M46.1,40.1 C51.8,40.1 56.3,33.1 56.3,26.6 C56.3,20.1 51.7,16.7 46.1,16.7 C40.5,16.7 35.9,20.1 35.9,26.6 C35.9,33.1 40.4,40.1 46.1,40.1 L46.1,40.1 Z M103.1,40.1 C108.8,40.1 113.3,33.1 113.3,26.6 C113.3,20.1 108.7,16.7 103.1,16.7 C97.5,16.7 92.9,20.2 92.9,26.6 C92.9,33 97.4,40.1 103.1,40.1 L103.1,40.1 Z M118.8,44.5 C118,43.6 116.8,43.2 115.6,43.2 L105.9,43.2 L104.2,45.5 L107.3,63.1 L103.1,67.1 L98.9,63.1 L102,45.5 L100.3,43.2 L90.6,43.2 L90.4,43.2 C91.9,43.5 93.3,44.3 94.4,45.4 C95.9,46.9 96.8,49 96.7,51.2 L96.4,82.8 C96.4,86 94.6,88.6 92,89.9 L92,114.5 C92,117.8 94.7,120.5 98,120.5 C100.1,120.5 101.9,119.4 103,117.8 C104.1,119.4 105.9,120.5 108,120.5 C111.3,120.5 114,117.8 114,114.5 L114,80.1 C114.4,80.2 114.8,80.3 115.2,80.3 C117.8,80.4 119.7,78.3 119.7,75.8 L120,47.7 C120.1,46.5 119.6,45.4 118.8,44.5 L118.8,44.5 Z M52.5,83.1 L52.5,51.1 C52.5,47.3 55.2,44.1 58.8,43.2 L58.7,43.2 L49,43.2 L47.3,45.5 L50.4,63.1 L46.2,67.1 L42,63.1 L45.1,45.5 L43.4,43.2 L33.6,43.2 C31.1,43.2 29.1,45.2 29.1,47.7 L29.1,76.1 C29.1,78.6 31.1,80.6 33.6,80.6 C34.1,80.6 34.6,80.5 35.1,80.3 L35.1,114.4 C35.1,117.7 37.8,120.4 41.1,120.4 C43.2,120.4 45,119.3 46.1,117.7 C47.2,119.3 49,120.4 51.1,120.4 C54.4,120.4 57.1,117.7 57.1,114.4 L57.1,90.3 C54.4,89 52.5,86.3 52.5,83.1 L52.5,83.1 Z M92.3,47.5 C91.3,46.5 90.1,46 88.7,46 L77.7,46 L75.8,48.5 L79.3,68.4 L74.6,72.9 L69.9,68.4 L73.4,48.5 L71.5,46 L60.5,46 C57.7,46 55.4,48.3 55.4,51.1 L55.4,83.1 C55.4,85.9 57.7,88.2 60.5,88.2 C61.1,88.2 61.7,88.1 62.2,87.9 L62.2,126.3 C62.2,130 65.2,133.1 69,133.1 C71.4,133.1 73.4,131.9 74.6,130.1 C75.8,131.9 77.9,133.1 80.2,133.1 C83.9,133.1 87,130.1 87,126.3 L87,87.6 C87.4,87.7 87.9,87.8 88.4,87.8 C91.3,87.9 93.5,85.6 93.5,82.8 L93.8,51.2 C93.8,49.7 93.2,48.4 92.3,47.5 L92.3,47.5 Z" id="Shape" fill="#FFFFFF"></path>
            </g>
        </g>
    </g>
</svg>