<?xml version="1.0" encoding="UTF-8" standalone="no"?>
<svg width="301px" height="151px" viewBox="0 0 301 151" version="1.1" xmlns="http://www.w3.org/2000/svg" xmlns:xlink="http://www.w3.org/1999/xlink" xmlns:sketch="http://www.bohemiancoding.com/sketch/ns">
    <!-- Generator: Sketch 3.0.3 (7892) - http://www.bohemiancoding.com/sketch -->
    <title>icona_spray</title>
    <desc>Created with Sketch.</desc>
    <defs>
        <linearGradient x1="100.011649%" y1="50.0521173%" x2="-0.00529500756%" y2="50.0521173%" id="linearGradient-1">
            <stop stop-color="#FFFFFF" offset="0%"></stop>
            <stop stop-color="#F7F7F7" offset="1.58971%"></stop>
            <stop stop-color="#BEBEBE" offset="13.24%"></stop>
            <stop stop-color="#8B8B8B" offset="25.22%"></stop>
            <stop stop-color="#606060" offset="37.27%"></stop>
            <stop stop-color="#3D3D3D" offset="49.41%"></stop>
            <stop stop-color="#222222" offset="61.65%"></stop>
            <stop stop-color="#0F0F0F" offset="74.04%"></stop>
            <stop stop-color="#040404" offset="86.7%"></stop>
            <stop stop-color="#000000" offset="100%"></stop>
        </linearGradient>
    </defs>
    <g id="Page-1" stroke="none" stroke-width="1" fill="none" fill-rule="evenodd" sketch:type="MSPage">
        <g id="icona_spray" sketch:type="MSLayerGroup">
            <g id="Group" transform="translate(57.000000, 48.000000)" stroke="#000000" stroke-width="2" sketch:type="MSShapeGroup">
                <path d="M60.9,48.5 L60.9,40 L56,40 C55.9,32.5 52.6,25.7 47.4,21.1 L13.1,21.1 C7.9,25.8 4.6,32.5 4.5,40 L-0.4,40 L-0.4,48.5 L4.2,48.5 L4.2,92.9 L-0.4,92.9 L-0.4,101.4 L60.9,101.4 L60.9,92.9 L56.3,92.9 L56.3,48.5 L60.9,48.5 L60.9,48.5 Z" id="Shape"></path>
                <path d="M46.5,11.1 L32.1,11.1 L32.1,8.5 L34.9,8.5 L34.9,0 L33,0 C32.2,0.3 31.1,0.5 30,0.5 C28.8,0.5 27.8,0.3 27,0 L25.3,0 L25.3,8.5 L28.1,8.5 L28.1,11.1 L13.7,11.1 L13.7,18.5 L46.3,18.5 L46.3,11.1 L46.5,11.1 Z" id="Shape"></path>
            </g>
            <g id="Group" transform="translate(85.000000, 50.000000)" fill="#000000" sketch:type="MSShapeGroup">
                <circle id="Oval" cx="2.1" cy="2.1" r="2.1"></circle>
                <circle id="Oval" cx="2.5" cy="2.5" r="1.5"></circle>
                <circle id="Oval" cx="2" cy="2" r="1"></circle>
                <circle id="Oval" cx="2.5" cy="2.5" r="0.5"></circle>
            </g>
            <circle id="Oval" fill="#000000" sketch:type="MSShapeGroup" cx="71.6" cy="73.6" r="1.6"></circle>
            <path d="M65.8,84.2 C65.7,84.6 65.4,84.9 65.1,84.8 L65.1,84.8 C64.7,84.7 64.5,84.4 64.6,83.9 C65.1,80.9 66.3,78 68.1,75.5 C68.3,75.2 68.8,75.1 69,75.4 L69,75.4 C69.3,75.6 69.3,76 69.1,76.3 C67.4,78.7 66.3,81.3 65.8,84.2 L65.8,84.2 Z" id="Shape" fill="#000000" sketch:type="MSShapeGroup"></path>
            <g id="Group" transform="translate(138.000000, 3.000000)" sketch:type="MSShapeGroup">
                <path d="M45.9,142.8 L45.9,35.4 C46.5,35.1 46.9,34.5 46.9,33.8 C46.9,32.8 46.1,32 45.1,32 L41.3,32 C38.2,27.9 32,25 24.8,24.7 L24.8,23.6 L27.4,23.6 L27.4,19.7 L28.4,19.7 L28.4,15.5 L27.4,15.5 L27.4,13 L19.5,13 L19.5,23.5 L22.4,23.5 L22.4,24.6 C15.2,24.9 9,27.8 5.9,31.9 L2.1,31.9 C1.1,31.9 0.3,32.7 0.3,33.7 C0.3,34.4 0.7,35.1 1.3,35.3 L1.3,142.8 C0.7,143.1 0.3,143.7 0.3,144.5 C0.3,145.5 1.1,146.3 2.1,146.3 L45,146.3 C46,146.3 46.8,145.5 46.8,144.5 C47,143.7 46.5,143.1 45.9,142.8 L45.9,142.8 Z" id="Shape" fill="#000000"></path>
                <path d="M5.8,122 C5.8,122.7 5.3,123.2 4.6,123.2 L4.6,123.2 C3.9,123.2 3.4,122.7 3.4,122 L3.4,37.7 C3.4,37 3.9,36.5 4.6,36.5 L4.6,36.5 C5.3,36.5 5.8,37 5.8,37.7 L5.8,122 L5.8,122 Z" id="Shape" fill="#FFFFFF"></path>
                <path d="M30.4,16.7 L162.1,-0.1 L162.6,30.6 L30.4,16.7 Z" id="Shape" fill="url(#linearGradient-1)"></path>
            </g>
            <path d="M33.8,30.1 L24.5,23 L23.8,23 L23.8,12.1 L22.6,12.1 L22.6,5.8 L18.1,0.6 L11.8,0.6 L11.8,12.1 L10.6,12.1 L10.6,23 L9.9,23 L0.6,30.1 L0.6,144.2 L3.2,144.2 L3.2,148.3 C3.2,148.9 3.7,149.4 4.3,149.4 L30.2,149.4 C30.8,149.4 31.3,148.9 31.3,148.3 L31.3,144.2 L33.9,144.2 L33.9,30.1 L33.8,30.1 Z" id="Shape" fill="#000000" sketch:type="MSShapeGroup"></path>
        </g>
    </g>
</svg>