<?xml version="1.0" encoding="utf-8"?>
<!-- Generator: Adobe Illustrator 17.1.0, SVG Export Plug-In . SVG Version: 6.00 Build 0)  -->
<!DOCTYPE svg PUBLIC "-//W3C//DTD SVG 1.1//EN" "http://www.w3.org/Graphics/SVG/1.1/DTD/svg11.dtd">
<svg version="1.1" id="Livello_1" xmlns="http://www.w3.org/2000/svg" xmlns:xlink="http://www.w3.org/1999/xlink" x="0px" y="0px"
	 viewBox="0 0 50 50" enable-background="new 0 0 50 50" xml:space="preserve">
<path fill="#FFFFFF" d="M34.9,19.9c0,0.2,0,0.4,0,0.7c0,6.8-5.2,14.6-14.6,14.6c-2.9,0-5.6-0.8-7.9-2.3c0.4,0,0.8,0.1,1.2,0.1
	c2.4,0,4.6-0.8,6.4-2.2c-2.2,0-4.1-1.5-4.8-3.6c0.3,0.1,0.6,0.1,1,0.1c0.5,0,0.9-0.1,1.3-0.2c-2.3-0.5-4.1-2.5-4.1-5V22
	c0.7,0.4,1.5,0.6,2.3,0.6c-1.4-0.9-2.3-2.5-2.3-4.3c0-0.9,0.3-1.8,0.7-2.6c2.5,3.1,6.3,5.1,10.6,5.4c-0.1-0.4-0.1-0.8-0.1-1.2
	c0-2.8,2.3-5.1,5.1-5.1c1.5,0,2.8,0.6,3.7,1.6c1.2-0.2,2.3-0.7,3.3-1.2c-0.4,1.2-1.2,2.2-2.3,2.8c1-0.1,2-0.4,2.9-0.8
	C36.8,18.3,35.9,19.2,34.9,19.9 M25,0C11.2,0,0,11.2,0,25c0,13.8,11.2,25,25,25s25-11.2,25-25C50,11.2,38.8,0,25,0"/>
</svg>
