<?xml version="1.0" encoding="UTF-8" standalone="no"?>
<svg width="150px" height="150px" viewBox="0 0 150 150" version="1.1" xmlns="http://www.w3.org/2000/svg" xmlns:xlink="http://www.w3.org/1999/xlink" xmlns:sketch="http://www.bohemiancoding.com/sketch/ns">
    <!-- Generator: Sketch 3.0.3 (7892) - http://www.bohemiancoding.com/sketch -->
    <title>icona_contacts</title>
    <desc>Created with Sketch.</desc>
    <defs></defs>
    <g id="Page-1" stroke="none" stroke-width="1" fill="none" fill-rule="evenodd" sketch:type="MSPage">
        <g id="icona_contacts" sketch:type="MSLayerGroup">
            <rect id="Rectangle-path" fill="#000000" sketch:type="MSShapeGroup" x="0" y="0" width="150" height="150"></rect>
            <path d="M126.2,58.1 C124.2,56.6 121.3,57.2 119.8,59.2 C119.8,59.2 118.7,60.7 117.1,61.9 C115.8,62.8 114,63.7 112,63.7 L37.2,63.7 C35.2,63.7 33.6,62.8 32.1,61.9 C30.5,60.6 29.4,59.4 29.4,59.2 C27.9,57.2 25.2,56.7 23,58.1 C21,59.6 20.5,62.3 21.9,64.5 C22.1,64.9 27,71.4 34.8,72.7 C32.6,74.7 31.4,77.6 31.4,80.7 C31.4,86.9 36.5,92 42.7,92 C48.9,92 54,86.9 54,80.7 C54,77.6 52.7,74.9 50.7,72.9 L98.6,72.9 C96.6,74.9 95.3,77.6 95.3,80.7 C95.3,86.9 100.4,92 106.6,92 C112.8,92 117.9,86.9 117.9,80.7 C117.9,77.6 116.6,74.7 114.5,72.7 C122.5,71.6 127.2,64.9 127.4,64.5 C128.7,62.5 128.2,59.6 126.2,58.1 L126.2,58.1 Z M42.7,82.8 C41.6,82.8 40.5,81.9 40.5,80.6 C40.5,79.5 41.4,78.4 42.7,78.4 C43.8,78.4 44.9,79.3 44.9,80.6 C44.9,81.9 44,82.8 42.7,82.8 L42.7,82.8 Z M106.6,82.8 C105.5,82.8 104.4,81.9 104.4,80.6 C104.4,79.5 105.3,78.4 106.6,78.4 C107.7,78.4 108.8,79.3 108.8,80.6 C108.8,81.9 107.9,82.8 106.6,82.8 L106.6,82.8 Z" id="Shape" fill="#FFFFFF" sketch:type="MSShapeGroup"></path>
        </g>
    </g>
</svg>