<?xml version="1.0" encoding="UTF-8" standalone="no"?>
<svg width="15px" height="15px" viewBox="0 0 15 15" version="1.1" xmlns="http://www.w3.org/2000/svg" xmlns:xlink="http://www.w3.org/1999/xlink" xmlns:sketch="http://www.bohemiancoding.com/sketch/ns">
    <!-- Generator: Sketch 3.0.3 (7892) - http://www.bohemiancoding.com/sketch -->
    <title>icona_sales</title>
    <desc>Created with Sketch.</desc>
    <defs></defs>
    <g id="Page-1" stroke="none" stroke-width="1" fill="none" fill-rule="evenodd" sketch:type="MSPage">
        <g id="icona_sales" sketch:type="MSLayerGroup" transform="translate(1.000000, 1.000000)">
            <rect id="Rectangle-path" fill="#000000" sketch:type="MSShapeGroup" x="0" y="0" width="12.6" height="12.6"></rect>
            <g id="Group" transform="translate(2.000000, 1.000000)" fill="#FFFFFF" sketch:type="MSShapeGroup">
                <path d="M4.1,5 C6.2,5 8,4.1 8,3 C8,2.9 7.9,2.8 7.9,2.7 C7.2,3.5 5.8,4 4,4 C2.2,4 0.8,3.5 0.1,2.7 C0,2.8 0,2.9 0,3 C0,4.1 2,5 4.1,5 L4.1,5 Z" id="Shape"></path>
                <path d="M4,9.3 C2.2,9.3 0.8,8.8 0.1,8 C0.1,8.1 0,8.2 0,8.3 C0,9.4 1.8,10.3 3.9,10.3 C6.1,10.3 7.8,9.4 7.8,8.3 C7.8,8.2 7.8,8.1 7.7,8 C7.2,8.7 5.8,9.3 4,9.3 L4,9.3 Z" id="Shape"></path>
                <path d="M4,3.7 C6.1,3.7 7.9,2.8 7.9,1.7 C7.9,0.6 6.1,-0.3 4,-0.3 C1.9,-0.3 0.1,0.6 0.1,1.7 C0.1,2.8 1.8,3.7 4,3.7 L4,3.7 Z" id="Shape"></path>
                <path d="M4,8 C2.2,8 0.8,7.5 0.1,6.7 C0.1,6.8 0,6.9 0,7 C0,8.1 1.8,9 3.9,9 C6.1,9 7.8,8.1 7.8,7 C7.8,6.9 7.8,6.8 7.7,6.7 C7.2,7.4 5.8,8 4,8 L4,8 Z" id="Shape"></path>
                <path d="M4,6.6 C2.2,6.6 0.8,6.1 0.1,5.3 C0.1,5.4 0,5.5 0,5.6 C0,6.7 1.8,7.6 3.9,7.6 C6.1,7.6 7.8,6.7 7.8,5.6 C7.8,5.5 7.8,5.4 7.7,5.3 C7.2,6.1 5.8,6.6 4,6.6 L4,6.6 Z" id="Shape"></path>
                <path d="M4,5.3 C2.2,5.3 0.8,4.8 0.1,4 C0.1,4.1 0,4.2 0,4.3 C0,5.4 1.8,6.3 3.9,6.3 C6.1,6.3 7.8,5.4 7.8,4.3 C7.8,4.2 7.8,4.1 7.7,4 C7.2,4.8 5.8,5.3 4,5.3 L4,5.3 Z" id="Shape"></path>
            </g>
            <path d="M4.7,3.3 C4.8,3.5 4.9,3.6 5,3.7 C5.2,3.9 5.5,3.9 5.9,3.9 L5.9,2.7 C5.5,2.5 5.2,2.4 5,2.3 C4.8,2.2 4.7,2 4.7,1.8 C4.7,1.6 4.8,1.5 5,1.4 C5.2,1.3 5.5,1.2 5.9,1.2 L5.9,1 L6.1,1 L6.1,1.3 C6.3,1.3 6.5,1.3 6.7,1.4 C6.9,1.4 7.1,1.5 7.2,1.6 L7.2,2 L7.1,2 C7,1.8 6.9,1.7 6.7,1.6 C6.5,1.5 6.3,1.5 6.1,1.4 L6.1,2.4 C6.6,2.6 6.9,2.7 7.1,2.8 C7.3,2.9 7.4,3.1 7.4,3.3 C7.4,3.4 7.4,3.5 7.3,3.5 L7,3.8 C6.9,3.9 6.7,3.9 6.6,3.9 C6.4,3.9 6.3,3.9 6.1,4 L6.1,4.4 L5.9,4.4 L5.9,4 C5.6,4 5.4,4 5.2,3.9 C5.1,3.9 4.9,3.8 4.7,3.8 L4.7,3.3 L4.7,3.3 Z M5.9,1.4 C5.7,1.4 5.5,1.5 5.4,1.5 C5.3,1.6 5.2,1.7 5.2,1.8 C5.2,1.9 5.3,2 5.5,2.1 C5.6,2.2 5.8,2.2 5.9,2.3 L5.9,1.4 L5.9,1.4 Z M6.5,3.8 C6.7,3.7 6.8,3.6 6.8,3.4 C6.8,3.3 6.7,3.2 6.6,3.1 C6.5,3 6.3,3 6.1,2.9 L6.1,4 C6.3,3.9 6.4,3.8 6.5,3.8 L6.5,3.8 Z" id="Shape" fill="#000000" sketch:type="MSShapeGroup"></path>
        </g>
    </g>
</svg>