<?xml version="1.0" encoding="utf-8"?>
<!-- Generator: Adobe Illustrator 17.1.0, SVG Export Plug-In . SVG Version: 6.00 Build 0)  -->
<!DOCTYPE svg PUBLIC "-//W3C//DTD SVG 1.1//EN" "http://www.w3.org/Graphics/SVG/1.1/DTD/svg11.dtd">
<svg version="1.1" id="Livello_1" xmlns="http://www.w3.org/2000/svg" xmlns:xlink="http://www.w3.org/1999/xlink" x="0px" y="0px"
	 viewBox="0 0 100 100" enable-background="new 0 0 100 100" xml:space="preserve">
<g>
	<path fill="#FFFFFF" d="M39.8,27.4c-4-0.1-6.6,3.9-5.9,9.1c0.7,5.2,4.5,8.9,8.4,9c4,0.1,6.3-3.2,5.6-8.5
		C47.2,31.8,43.8,27.5,39.8,27.4"/>
	<path fill="#FFFFFF" d="M41.5,56.1c-5.9-0.1-10.9,3.7-10.9,8.1c0,4.5,4.3,8.2,10.2,8.2c8.3,0,11.2-3.5,11.2-8
		c0-0.5-0.1-1.1-0.2-1.6c-0.7-2.5-3.2-3.9-6.5-6.2C44.2,56.4,42.9,56.2,41.5,56.1"/>
	<path fill="#FFFFFF" d="M75,35.9h-6.8v6.8h-3.4v-6.8H58v-3.4h6.8v-6.8h3.4v6.8H75V35.9z M53.8,36.8c0,3.3-1.8,5.9-4.4,7.9
		c-2.5,1.9-3,2.8-3,4.4c0,1.4,3,3.5,4.3,4.5c4.8,3.6,5.7,5.8,5.7,10.3c0,5.6-6,11.1-15.8,11.1C32.2,75,25,71.5,25,65.9
		c0-5.7,6-11.5,14.6-11.5c0.9,0,1.8,0,2.7,0c-1.2-1.1-2.1-2.1-2.1-3.8c0-1,0.3-2,0.8-2.9c-0.5,0-0.9,0.1-1.4,0.1
		c-7,0-11.1-4.9-11.1-11.1c0-6.1,6.2-11.6,13.7-11.6h14.7l-3.3,3.5h-3.9C52.4,30,53.8,33.2,53.8,36.8 M50,0C22.4,0,0,22.4,0,50
		c0,27.6,22.4,50,50,50c27.6,0,50-22.4,50-50C100,22.4,77.6,0,50,0"/>
</g>
</svg>
