<?xml version="1.0" encoding="utf-8"?>
<!-- Generator: Adobe Illustrator 17.1.0, SVG Export Plug-In . SVG Version: 6.00 Build 0)  -->
<!DOCTYPE svg PUBLIC "-//W3C//DTD SVG 1.1//EN" "http://www.w3.org/Graphics/SVG/1.1/DTD/svg11.dtd">
<svg version="1.1" id="Livello_1" xmlns="http://www.w3.org/2000/svg" xmlns:xlink="http://www.w3.org/1999/xlink" x="0px" y="0px"
	 viewBox="0 0 300 200" enable-background="new 0 0 300 200" xml:space="preserve">
<g>
	<g>
		<g>
			<path d="M44.7,182.7l1.4-0.2c0.5-0.1,0.9-0.1,1.2-0.1c0.4,0,0.8,0.2,1,0.4c0.3,0.3,0.4,0.7,0.4,1.4c0,1-0.2,2-0.6,2.7
				c-0.5,0.9-1.2,1.5-2.2,1.7l1.7,5.6l-1.2,0.2l-1.7-5.6l0,0l-0.9,6l-1.1,0.2L44.7,182.7z M45.6,183.6l-0.7,4.3l0.4-0.1
				c0.9-0.1,1.5-0.5,1.8-1.2c0.1-0.3,0.3-0.8,0.3-1.4c0-0.3,0.1-0.6,0.1-0.8c0-0.5-0.1-0.8-0.4-0.9c-0.2-0.1-0.6-0.1-1.1-0.1
				L45.6,183.6z"/>
			<path d="M61.2,180.1l-0.2,1l-2.7,0.4l-0.7,4.3l2.6-0.4l-0.1,1.1l-2.6,0.4l-0.7,4.8l2.6-0.4l-0.2,1l-3.8,0.6l1.9-12.3L61.2,180.1z
				"/>
			<path d="M71.9,178.3l0.5,11.9l-1.2,0.2l-0.1-2.4l-2.5,0.4l-0.8,2.6l-1.2,0.2l4.3-12.7L71.9,178.3z M69,187.3l2.2-0.4l-0.1-4
				c0-0.1,0-0.2,0-0.3c0-0.2,0-0.7,0.1-1.4c0-0.6,0.1-1,0.1-1.4l-0.1,0L69,187.3z"/>
			<path d="M83,176.5l-1.7,11.2l2.6-0.4l-0.2,1L80,189l1.9-12.3L83,176.5z"/>
			<path d="M94.4,174.7l-1.7,11.2l2.6-0.4l-0.2,1l-3.7,0.6l1.9-12.3L94.4,174.7z"/>
			<path d="M108.4,172.4l1.2-0.2l-3.3,7.3l-0.8,5.4l-1.1,0.2l0.8-5.4l-1.2-6.5l1.2-0.2l0.8,5.5l0.1,0c0.1-0.5,0.4-1.4,1-2.8
				c0.3-0.6,0.5-1.2,0.8-1.9L108.4,172.4z"/>
			<path d="M130.3,179.4l-0.2,1.2c-0.6,0.4-1.1,0.7-1.7,0.8c-1,0.2-1.7-0.2-2.1-1.2c-0.2-0.5-0.3-1-0.3-1.6c0-0.6,0-1.2,0.1-1.9
				c0.1-1.4,0.4-2.7,0.8-3.9c0.5-1.6,1.2-2.7,2-3.3c0.5-0.4,1-0.6,1.6-0.7c0.6-0.1,1.1,0,1.4,0.2l-0.2,1.2c-0.3-0.3-0.7-0.4-1.3-0.3
				c-0.6,0.1-1.2,0.5-1.6,1.1c-0.4,0.6-0.8,1.6-1.1,3c-0.3,1.4-0.5,2.7-0.5,3.9c0.1,0.5,0.1,0.8,0.1,0.9c0,0.3,0.1,0.6,0.2,0.8
				c0.2,0.5,0.6,0.8,1.3,0.7C129.2,180.1,129.8,179.8,130.3,179.4z"/>
			<path d="M138.6,174.7c0-0.2,0.1-0.5,0.1-1l0.1-0.8c0.3-2.1,0.9-3.7,1.7-4.9c0.5-0.7,1.2-1.2,2.1-1.3c1.5-0.2,2.2,0.7,2.2,2.9
				c0,1.2-0.2,2.6-0.5,4c-0.2,1-0.4,1.9-0.7,2.6c-0.3,0.8-0.7,1.5-1.2,2c-0.5,0.6-1.1,0.9-1.8,1c-0.8,0.1-1.3-0.1-1.7-0.6
				c-0.4-0.6-0.5-1.3-0.5-2.3C138.4,175.9,138.5,175.3,138.6,174.7z M143.5,172.3c0.1-1,0.2-1.8,0.2-2.4c0-1.5-0.4-2.2-1.3-2.1
				c-0.5,0.1-1,0.4-1.3,1c-0.5,0.8-0.9,2.2-1.2,4.3c-0.1,0.9-0.2,1.5-0.3,2c-0.1,0.5-0.1,0.9-0.1,1.1c0,1.5,0.5,2.2,1.3,2
				c0.9-0.1,1.5-0.9,2-2.4C143.1,175,143.3,173.9,143.5,172.3z"/>
			<path d="M153.8,165.1l1.4-0.2c0.5-0.1,0.9-0.1,1.2-0.1c0.4,0,0.8,0.2,1,0.4c0.3,0.3,0.4,0.7,0.4,1.4c0,1-0.2,2-0.6,2.7
				c-0.5,0.9-1.2,1.5-2.2,1.7l1.7,5.6l-1.2,0.2l-1.7-5.6l0,0l-0.9,6l-1.1,0.2L153.8,165.1z M154.7,165.9l-0.7,4.3l0.4-0.1
				c0.9-0.1,1.5-0.5,1.8-1.2c0.1-0.3,0.3-0.8,0.3-1.4c0-0.3,0.1-0.6,0.1-0.8c0-0.5-0.1-0.8-0.4-0.9c-0.2-0.1-0.6-0.1-1.1-0.1
				L154.7,165.9z"/>
			<path d="M170.2,162.4l-0.2,1l-2.7,0.4l-0.7,4.3l2.6-0.4l-0.1,1.1l-2.6,0.4l-0.7,4.8l2.6-0.4l-0.2,1l-3.8,0.6l1.9-12.3
				L170.2,162.4z"/>
			<path d="M186.5,171.3l0.2-1.5c0.4,0.5,1,0.8,1.8,0.7c0.6-0.1,1.1-0.5,1.6-1.1c0.4-0.5,0.6-1.1,0.6-1.8c0-0.7-0.3-1.2-0.8-1.6
				c-0.4-0.2-0.8-0.5-1.3-0.9c-0.7-0.5-1-1.1-1.1-1.9c0-0.5,0.1-0.8,0.1-1c0.3-1.3,0.9-2.2,1.8-2.8c0.4-0.3,0.9-0.5,1.3-0.5
				c0.7-0.1,1.3,0,1.8,0.3l-0.2,1.5c-0.5-0.6-1-0.8-1.6-0.7c-0.7,0.1-1.3,0.5-1.7,1.3c-0.2,0.4-0.3,0.7-0.3,1.1c0,0.1,0,0.2,0,0.4
				c0,0.5,0.2,1,0.7,1.4c0.2,0.2,0.7,0.5,1.3,0.8c0.9,0.5,1.3,1.2,1.3,2.2c0,1-0.3,1.9-1,2.9c-0.7,0.9-1.6,1.5-2.5,1.7
				C187.5,171.8,186.9,171.7,186.5,171.3z"/>
			<path d="M206.3,156.6l-1.9,12.3l-1.1,0.2l1-6.3l-2.8,0.4l-1,6.3l-1.1,0.2l1.9-12.3l1.1-0.2l-0.8,4.9l2.7-0.4l0.7-4.9L206.3,156.6
				z"/>
			<path d="M213.4,162.6c0-0.2,0.1-0.5,0.1-1l0.1-0.8c0.3-2.1,0.9-3.7,1.7-4.9c0.5-0.7,1.2-1.2,2.1-1.3c1.5-0.2,2.2,0.7,2.2,2.9
				c0,1.2-0.2,2.6-0.5,4c-0.2,1-0.4,1.9-0.7,2.6c-0.3,0.8-0.7,1.5-1.2,2c-0.5,0.6-1.1,0.9-1.8,1c-0.8,0.1-1.3-0.1-1.7-0.6
				c-0.4-0.6-0.5-1.3-0.5-2.3C213.3,163.8,213.4,163.2,213.4,162.6z M218.4,160.2c0.2-1,0.2-1.8,0.2-2.4c0-1.5-0.4-2.2-1.3-2.1
				c-0.5,0.1-1,0.4-1.3,1c-0.5,0.8-0.9,2.2-1.2,4.3c-0.1,0.9-0.2,1.5-0.3,2c-0.1,0.5-0.1,0.9-0.1,1.1c0,1.5,0.5,2.2,1.3,2
				c0.9-0.1,1.5-1,2-2.4C218,162.9,218.2,161.8,218.4,160.2z"/>
			<path d="M228.7,153l1.6-0.3c0.8-0.1,1.4-0.1,1.8,0.1c0.5,0.3,0.7,0.8,0.7,1.5c0,0.2,0,0.5-0.1,0.9c-0.2,1.8-0.9,3-2.1,3.5
				c-0.4,0.2-0.9,0.3-1.5,0.4l-0.3,0.1l-0.9,5.9l-1.1,0.2L228.7,153z M229.6,153.8l-0.7,4.3l0.6-0.1c0.8-0.1,1.5-0.5,1.8-1.1
				c0.2-0.4-0.3-0.9,0.6-1.6v-0.5c0-0.5-0.3-0.9-0.6-1c-0.2-0.1-0.7-0.1-1.3,0L229.6,153.8z"/>
		</g>
		<g>
			<path d="M70,33.6l-0.2,1.1l-2.8,0.5l-0.7,4.6l2.7-0.4l-0.1,1.1l-2.7,0.4l-0.8,5l2.8-0.4L68,46.4L64.1,47l2-12.9L70,33.6z"/>
			<path d="M84.9,43.2l0.3-1.5c0.5,0.6,1.1,0.8,1.9,0.7c0.7-0.1,1.2-0.5,1.6-1.1c0.4-0.6,0.6-1.2,0.6-1.9c0-0.7-0.3-1.3-0.9-1.7
				c-0.4-0.2-0.8-0.5-1.4-0.9c-0.7-0.5-1.1-1.2-1.1-2c0-0.5,0.1-0.8,0.1-1c0.3-1.3,0.9-2.3,1.9-3c0.5-0.3,0.9-0.5,1.4-0.6
				c0.8-0.1,1.4,0,1.9,0.3l-0.2,1.5c-0.5-0.6-1.1-0.8-1.7-0.7c-0.8,0.1-1.4,0.6-1.8,1.3c-0.2,0.4-0.3,0.7-0.3,1.1c0,0.1,0,0.2,0,0.4
				c0,0.5,0.3,1,0.7,1.4c0.2,0.2,0.7,0.5,1.3,0.9c0.9,0.5,1.4,1.3,1.4,2.3c0,1-0.4,2-1.1,3c-0.7,1-1.6,1.6-2.7,1.7
				C86,43.7,85.4,43.6,84.9,43.2z"/>
			<path d="M112.8,26.6l-0.2,1.1l-1.9,0.3l-1.8,11.8l-1.2,0.2l1.8-11.8l-1.9,0.3l0.2-1.1L112.8,26.6z"/>
			<path d="M128.2,35.1c0.5-0.1,0.8,0.1,0.8,0.7c0,0.2-0.1,0.5-0.3,0.7c-0.2,0.2-0.4,0.3-0.7,0.4c-0.4,0.1-0.7-0.1-0.7-0.5
				c0.1-0.3,0.1-0.4,0.2-0.5c0.1-0.2,0.2-0.3,0.3-0.5C127.8,35.2,128,35.2,128.2,35.1z"/>
			<path d="M164.4,30.8l4.4-7.5c0.9-1.6,1.4-2.9,1.4-3.8c0-0.8-0.3-1.1-0.9-1.1c-1.2,0.2-1.9,1.1-2.1,2.8l-1.1,0.2
				c0.1-1,0.4-1.8,0.8-2.5c0.5-0.9,1.3-1.4,2.1-1.5c0.9-0.1,1.6,0.1,2,0.7c0.2,0.3,0.3,0.7,0.3,1.1c0,1.3-0.6,2.9-1.7,4.8l-3.3,5.5
				l3.4-0.6l-0.1,1.1L164.4,30.8z"/>
			<path d="M187.7,20c0.6-3.8,1.8-5.9,3.6-6.2c1.5-0.3,2.2,0.7,2.2,2.9c0,0.7-0.1,1.6-0.2,2.6c-0.2,1.3-0.4,2.5-0.7,3.6
				c-0.3,1-0.6,1.9-1.1,2.6c-0.5,0.8-1.2,1.3-1.9,1.4c-0.6,0.1-1,0-1.4-0.2c-0.3-0.2-0.6-0.6-0.7-1c-0.2-0.5-0.2-1-0.2-1.6
				c0-0.3,0-0.8,0.1-1.3c0-0.4,0.1-1,0.2-1.6L187.7,20z M192.1,19.5c0.2-1,0.2-1.9,0.2-2.7c0-1.4-0.4-2.1-1.1-2
				c-0.7,0.1-1.3,0.8-1.8,2.2c-0.2,0.7-0.4,1.6-0.6,2.9c-0.1,0.5-0.2,1.4-0.4,2.5c-0.1,0.6-0.1,1.1-0.1,1.4c0,1.5,0.4,2.1,1.1,2
				c0.8-0.1,1.4-0.9,1.8-2.2C191.5,22.8,191.8,21.4,192.1,19.5z"/>
			<path d="M214.3,10.2l-2,12.9l-1.1,0.2l1.8-11.7l-1.7,0.3l0.4-1.1L214.3,10.2z"/>
			<path d="M236.5,6.6l-2,12.9l-1.1,0.2l1.8-11.7l-1.7,0.3L234,7L236.5,6.6z"/>
		</g>
		<polygon points="33.3,63.5 271.3,25.7 271.3,24.8 33.3,62.7 		"/>
		<polygon points="16.6,180.8 254.6,142.9 254.6,142 16.6,179.9 		"/>
		<polygon points="44.2,37.5 46.1,41.1 50.1,40.5 47.2,43.4 49.1,47 45.5,45.2 42.6,48 43.2,44 39.6,42.2 43.6,41.5 		"/>
		<polygon points="253.2,5 255.1,8.6 259.1,8 256.2,10.9 258.1,14.5 254.5,12.7 251.6,15.5 252.2,11.5 248.6,9.7 252.6,9 		"/>
	</g>
	<g>
		<polygon fill="#B0B2B3" points="41.3,83.3 36.5,115.6 40.7,115 44.9,86.9 65.2,83.6 66.4,76 62.1,76.7 61.6,80 		"/>
		<polygon fill="#B0B2B3" points="55,116.8 54.5,120.4 35.4,123.5 28.7,167 24.6,167.7 24,171.9 32.3,170.6 39,127.1 58.1,124 
			59.2,116.1 		"/>
		<polygon fill="#B0B2B3" points="86.6,157.7 62.9,161.5 62.3,165.8 90.2,161.2 91.3,153.5 87.1,154.2 		"/>
		<polygon fill="#B0B2B3" points="79.6,77.1 74.7,109.5 78.9,108.8 83.2,80.7 103,77.5 104.2,69.9 99.9,70.6 99.4,73.9 		"/>
		<polygon fill="#B0B2B3" points="73.7,117.3 68.1,153.1 72.4,152.4 77.3,120.9 96.4,117.8 97.5,109.9 93.3,110.6 92.8,114.2 		"/>
		<polygon fill="#B0B2B3" points="124.1,151.6 100.5,155.4 99.8,159.7 127.7,155.2 128.9,147.4 124.6,148.1 		"/>
		<polygon fill="#B0B2B3" points="111.2,111.3 105.7,147 109.9,146.3 114.8,114.8 134,111.7 135,103.9 130.9,104.5 130.4,108.2 		
			"/>
		<polygon fill="#B0B2B3" points="117.1,71 112.3,103.4 116.5,102.7 120.7,74.6 140.6,71.4 141.8,63.8 137.5,64.5 137,67.8 		"/>
		<polygon fill="#B0B2B3" points="147.5,140.2 159.7,60.9 155.5,61.6 143.3,140.9 		"/>
		<polygon fill="#B0B2B3" points="161.4,145.6 138,149.3 137.4,153.6 165,149.1 166.2,141.4 162,142.1 		"/>
		<polygon fill="#B0B2B3" points="196.7,139.9 192.6,140.5 192,144.8 200.3,143.4 214.3,52.1 210.1,52.8 		"/>
		<polygon fill="#B0B2B3" points="219.2,54.5 218.6,58.8 227.7,57.3 228.3,53.1 		"/>
		<polygon fill="#B0B2B3" points="254.9,45.5 250.6,46.2 250.1,49.5 236.7,51.7 223.6,135.5 219.7,136.1 219,140.4 227.2,139.1 
			240.3,55.3 253.7,53.1 		"/>
		<polygon fill="#B0B2B3" points="254.8,130.9 249.7,131.7 249.2,135 257.4,133.6 259.2,123.9 255.9,124.4 		"/>
		<polygon fill="#B0B2B3" points="259.9,104.1 254.9,121 278.9,76.3 274.4,77 		"/>
		<polygon fill="#B0B2B3" points="253.7,86.6 252.6,90.1 261,88.4 262,84.9 		"/>
		<polygon fill="#B0B2B3" points="269.1,74.7 283.4,40.3 279.2,41.1 265,75.3 		"/>
	</g>
	<g>
		<path d="M60.1,69.7l-1.2,7.6l-20.3,3.3l-4.9,32.3l19.1-3.1l-1,7.9l-19.1,3.1L26,164.3l-8.3,1.3l14-91.4L60.1,69.7z"/>
		<path d="M97.9,63.6l-1.2,7.6l-19.9,3.2L72,106.8l19.1-3.1l-1,7.9L71,114.6l-5.6,35.8l19.6-3.2l-1.2,7.7L56,159.5L70,68.1
			L97.9,63.6z"/>
		<path d="M135.5,57.5l-1.2,7.6l-19.9,3.2l-4.9,32.4l19.1-3.1l-1,7.9l-19.1,3.1l-5.6,35.8l19.6-3.2l-1.2,7.7l-27.9,4.5l14-91.4
			L135.5,57.5z"/>
		<path d="M153.5,54.6l-12.9,83.6l19.4-3.1l-1.2,7.8l-27.6,4.5l14-91.4L153.5,54.6z"/>
		<path d="M208,45.8l-14,91.4l-8.3,1.3l14-91.4L208,45.8z"/>
		<path d="M253.8,118.5l-1.7,9.7l-8.3,1.3l1.7-9.7L253.8,118.5z"/>
		<path d="M248.6,39.2l-1.2,7.6L234,49L221,132.8l-8.2,1.3l12.9-83.8l-13.4,2.2l1.2-7.6L248.6,39.2z"/>
		<path d="M259.3,82.3l-12.1,2.4l14.9-46.8l15.9-3l-15.7,37.7l11.2-1.7l-23.9,44.7L259.3,82.3z"/>
	</g>
</g>
</svg>
